<?xml version="1.0" encoding="UTF-8"?>
<svg width="512px" height="512px" viewBox="0 0 512 512" version="1.1" xmlns="http://www.w3.org/2000/svg" xmlns:xlink="http://www.w3.org/1999/xlink">
    <!-- Generator: Sketch 55.2 (78181) - https://sketchapp.com -->
    <title>starter</title>
    <desc>Created with Sketch.</desc>
    <g id="starter" stroke="none" stroke-width="1" fill="none" fill-rule="evenodd">
        <g id="starter-logo" transform="translate(16.000000, 16.000000)" fill-rule="nonzero">
            <rect id="Rectangle" fill="#47AD6B" x="0" y="0" width="480" height="480"></rect>
            <g id="Group" transform="translate(107.000000, 107.000000)" fill="#FFFFFF">
                <path d="M265.300757,74.8249917 L265.300757,74.8249917 L265.300757,74.8249917 C265.300757,75.9850626 265.358959,77.3560304 265.475361,78.9378949 L265.475361,78.9378949 L265.475361,78.9378949 C265.59204,80.5197595 265.650379,82.3125208 265.650379,84.3161789 L265.650379,84.3161789 L265.650379,84.3161789 C265.650379,86.8474947 265.242418,89.9850349 264.426497,93.7287995 L264.426497,93.7287995 L264.426497,93.7287995 C263.610301,97.472564 262.298841,101.401036 260.49212,105.514217 L260.49212,105.514217 L260.49212,105.514217 C258.685123,109.62712 256.266322,113.740023 253.23572,117.852927 L253.23572,117.852927 L253.23572,117.852927 C250.204841,121.966107 246.474582,125.657355 242.044942,128.926671 L242.044942,128.926671 L242.044942,128.926671 C237.615302,132.19571 232.398704,134.858525 226.395148,136.915115 L226.395148,136.915115 L226.395148,136.915115 C220.391867,138.971705 213.543428,140 205.849828,140 L205.849828,140 L205.849828,140 C198.97215,140 191.948692,138.813463 184.779456,136.440389 L184.779456,136.440389 L184.779456,136.440389 C177.610495,134.067592 171.082576,130.376483 165.195698,125.36706 L165.195698,125.36706 L165.195698,125.36706 C159.309096,120.357638 154.471496,113.977248 150.682898,106.22589 L150.682898,106.22589 L150.682898,106.22589 C146.894299,98.4745316 145,89.2202915 145,78.4631693 L145,78.4631693 L145,78.4631693 C145,71.7136404 145.9617,65.0695599 147.8851,58.5309278 L147.8851,58.5309278 L147.8851,58.5309278 C149.8085,51.9922958 152.373079,45.8228024 155.578837,40.0224476 L155.578837,40.0224476 L155.578837,40.0224476 C158.784595,34.2220929 162.573056,28.8699978 166.944219,23.9661623 L166.944219,23.9661623 L166.944219,23.9661623 C171.315657,19.0620497 175.920176,14.8435595 180.757777,11.3106917 L180.757777,11.3106917 L180.757777,11.3106917 C185.595653,7.77782397 190.608271,5.00942246 195.79563,3.0054872 L195.79563,3.0054872 L195.79563,3.0054872 C200.982989,1.00182907 206.02457,0 210.920371,0 L210.920371,0 L210.920371,0 C219.430167,0 226.453625,1.21286443 231.990744,3.63859328 L231.990744,3.63859328 L231.990744,3.63859328 C237.527862,6.06404501 241.928401,9.06967077 245.192361,12.6554706 L245.192361,12.6554706 L245.192361,12.6554706 C248.456321,16.2409932 250.75858,20.0638787 252.09914,24.124127 L252.09914,24.124127 L252.09914,24.124127 C253.4397,28.1843753 254.10998,31.8491575 254.10998,35.1184736 L254.10998,35.1184736 L254.10998,35.1184736 C254.10998,38.2824798 253.26482,41.894607 251.574501,45.9548553 L251.574501,45.9548553 L251.574501,45.9548553 C249.884182,50.0151036 247.115623,53.8644552 243.268823,57.5029099 L243.268823,57.5029099 L243.268823,57.5029099 C239.422024,61.1413646 234.409544,64.1996453 228.231384,66.6777519 L228.231384,66.6777519 L228.231384,66.6777519 C222.052948,69.1561357 214.475889,70.3953276 205.500207,70.3953276 L205.500207,70.3953276 L205.500207,70.3953276 C200.720808,70.3953276 196.436809,69.7889646 192.648211,68.5762388 L192.648211,68.5762388 L192.648211,68.5762388 C188.859612,67.3635129 185.508213,65.8343033 182.594013,63.9886099 L182.594013,63.9886099 L182.594013,63.9886099 C178.164649,61.6490688 174.929928,59.3983483 172.889849,57.2364483 C174.469007,51.3643166 174.928273,47.2630529 174.267647,44.9326571 C174.123661,44.4250915 174.140625,43.0965248 173.890304,42.7569006 L173.116172,44.9168607 L170.004336,51.8868474 L170.004336,51.8868474 C167.906056,58.4254794 166.856917,66.0715275 166.856917,74.8249917 L166.856917,74.8249917 L166.856917,74.8249917 C166.856917,80.8362432 167.818617,86.2411318 169.742016,91.0396575 L169.742016,91.0396575 L169.742016,91.0396575 C171.665416,95.8381831 174.317435,99.9247589 177.698073,103.299385 L177.698073,103.299385 L177.698073,103.299385 C181.078435,106.674011 185.100115,109.257843 189.763111,111.050881 L189.763111,111.050881 L189.763111,111.050881 C194.425832,112.843643 199.554852,113.740023 205.150172,113.740023 L205.150172,113.740023 L205.150172,113.740023 C212.144529,113.740023 218.264487,112.659073 223.510048,110.497173 L223.510048,110.497173 L223.510048,110.497173 C228.755885,108.335273 233.331303,105.619665 237.236304,102.350349 L237.236304,102.350349 L237.236304,102.350349 C241.141305,99.0810331 244.521805,95.5216994 247.377804,91.6723479 L247.377804,91.6723479 L247.377804,91.6723479 C250.233804,87.8229963 252.710943,84.28999 254.809222,81.0733289 L254.809222,81.0733289 L254.809222,81.0733289 C256.907502,77.8569449 258.743462,75.1941304 260.317102,73.0848853 L260.317102,73.0848853 L260.317102,73.0848853 C261.890743,70.9756402 263.435283,69.9736725 264.950722,70.0789824 L264.950722,70.0789824 L264.950722,70.0789824 C265.650241,70.0789824 266,70.6063629 266,71.661124 L266,71.661124 L266,71.661124 C266,72.1882275 265.941661,72.7154695 265.824982,73.24285 L265.824982,73.24285 L265.824982,73.24285 C265.70858,73.7702306 265.533838,74.2976111 265.300757,74.8249917 Z M212.668892,15.977303 L212.668892,15.977303 L212.668892,15.977303 C210.570888,15.977303 207.860668,16.3727691 204.538231,17.1637014 L204.538231,17.1637014 L204.538231,17.1637014 C201.21607,17.9549108 197.71903,19.3523445 194.04711,21.3560027 L194.04711,21.3560027 L194.04711,21.3560027 C190.37519,23.3596608 186.73237,26.0752688 183.118651,29.5028267 L183.118651,29.5028267 L183.118651,29.5028267 L174.846074,40.9365647 L173.676394,42.5536249 C174.469145,42.8288161 174.983853,43.0077042 175.22052,43.0902893 C182.383412,45.5894579 187.842883,47.6517293 191.598933,49.2766877 L191.598933,49.2766877 L191.598933,49.2766877 C195.620612,51.0167941 200.137692,51.8868474 205.150172,51.8868474 L205.150172,51.8868474 L205.150172,51.8868474 C209.11365,51.8868474 212.523388,51.2804844 215.379388,50.0677586 L215.379388,50.0677586 L215.379388,50.0677586 C218.235387,48.8550327 220.595986,47.2994956 222.461184,45.4011473 L222.461184,45.4011473 L222.461184,45.4011473 C224.326107,43.502799 225.666667,41.4198814 226.482863,39.1523944 L226.482863,39.1523944 L226.482863,39.1523944 C227.298784,36.8851846 227.706745,34.6441636 227.706745,32.4293316 L227.706745,32.4293316 L227.706745,32.4293316 C227.706745,27.6837379 226.366185,23.7552655 223.685066,20.6439142 L223.685066,20.6439142 L223.685066,20.6439142 C221.003946,17.53284 217.331888,15.977303 212.668892,15.977303 Z" id="Shape"></path>
                <path d="M0,45.761243 L0,45.761243 L0,45.761243 C0,45.1115184 5.56864644,39.5345296 16.7059393,29.0302767 L16.7059393,29.0302767 L16.7059393,29.0302767 C27.8432322,18.5260239 34.6094296,13.2738974 37.0045315,13.2738974 L37.0045315,13.2738974 L37.0045315,13.2738974 C39.3996333,13.2738974 40.5971843,17.6056269 40.5971843,26.2690858 L40.5971843,26.2690858 L40.5971843,26.2690858 C40.5971843,43.812208 43.1718842,62.2758661 48.321284,81.6600601 L48.321284,81.6600601 L48.321284,81.6600601 C53.4706839,101.043976 59.6380366,118.316287 66.8233422,133.476993 L66.8233422,133.476993 L66.8233422,133.476993 C74.0086478,148.637976 81.4334636,162.715854 89.0977896,175.710626 L89.0977896,175.710626 L89.0977896,175.710626 C96.7623923,188.705675 103.169394,198.722634 108.318793,205.761504 L108.318793,205.761504 L108.318793,205.761504 C113.468193,212.800373 116.521914,216.64467 117.479954,217.294395 L117.479954,217.294395 L117.479954,217.294395 C126.34197,114.851043 142.508976,50.2013526 165.980975,23.3453247 L165.980975,23.3453247 L165.980975,23.3453247 C173.16628,15.3315905 180.71092,11.2164823 188.614895,11 L188.614895,11 L188.614895,11 C196.47653,12.9038767 201.604898,15.0470233 204,17.4294398 L198.31485,14.5736247 L198.31485,14.5736247 C195.973157,15.9394916 190.529731,21.0158478 181.984572,29.8026932 C169.166834,42.9829614 165.262444,54.5329431 154.484486,85.395838 L154.484486,85.395838 L154.484486,85.395838 C147.29918,105.971101 141.670622,128.333246 137.59881,152.482273 L137.59881,152.482273 L137.59881,152.482273 C133.527275,176.631022 131.491508,196.285889 131.491508,211.446872 L131.491508,211.446872 L133.287627,239.386006 L133.287627,239.386006 C122.749178,251.514571 115.623785,259.148975 111.911446,262.289218 L111.911446,262.289218 L111.911446,262.289218 C108.199108,265.429739 105.265073,267 103.109343,267 L103.109343,267 L103.109343,267 C99.2771801,267 91.8523643,258.878164 80.8348957,242.634491 L80.8348957,242.634491 L80.8348957,242.634491 C69.8174271,226.390818 58.3209381,207.115004 46.3454288,184.807049 L46.3454288,184.807049 L46.3454288,184.807049 C34.3699194,162.499094 23.7116469,138.133585 14.3706112,111.710521 L14.3706112,111.710521 L14.3706112,111.710521 C5.0298523,85.287458 0.239648552,63.3043652 0,45.761243 Z" id="Path"></path>
            </g>
        </g>
    </g>
</svg>