<svg version="1.1" id="Layer_1" width="845" height="1099" xmlns="http://www.w3.org/2000/svg" xmlns:xlink="http://www.w3.org/1999/xlink" x="0px" y="0px"
	 viewBox="0 0 845.2 1099.8" style="enable-background:new 0 0 845.2 1099.8;" xml:space="preserve">
<symbol id="dot" >
  <g>
      <g>
          <circle class="st0" cx="42.4" cy="53" r="7.3"/>
      </g>
      <g>
          <circle class="st0" cx="42.4" cy="116.3" r="7.3"/>
      </g>
      <g>
          <circle class="st0" cx="42.4" cy="179.7" r="7.3"/>
      </g>
      <g>
          <circle class="st0" cx="42.4" cy="243.1" r="7.3"/>
      </g>
      <g>
          <circle class="st0" cx="42.4" cy="306.4" r="7.3"/>
      </g>
      <g>
          <circle class="st0" cx="42.4" cy="369.8" r="7.3"/>
      </g>
      <g>
          <circle class="st0" cx="42.4" cy="433.2" r="7.3"/>
      </g>
      <g>
          <circle class="st0" cx="42.4" cy="496.5" r="7.3"/>
      </g>
      <g>
          <circle class="st0" cx="42.4" cy="559.9" r="7.3"/>
      </g>
      <g>
          <circle class="st0" cx="42.4" cy="623.2" r="7.3"/>
      </g>
      <g>
          <circle class="st0" cx="42.4" cy="686.6" r="7.3"/>
      </g>
      <g>
          <circle class="st0" cx="42.4" cy="750" r="7.3"/>
      </g>
      <g>
          <circle class="st0" cx="42.4" cy="813.3" r="7.3"/>
      </g>
      <g>
          <circle class="st0" cx="42.4" cy="876.7" r="7.3"/>
      </g>
      <g>
          <circle class="st0" cx="42.4" cy="940.1" r="7.3"/>
      </g>
      <g>
          <circle class="st0" cx="42.4" cy="993.4" r="7.3"/>
      </g>
      <g>
          <circle class="st0" cx="42.4" cy="1046.8" r="7.3"/>
      </g>
      <g>
          <circle class="st0" cx="105.8" cy="53" r="7.3"/>
      </g>
      <g>
          <circle class="st0" cx="105.8" cy="116.3" r="7.3"/>
      </g>
      <g>
          <circle class="st0" cx="105.8" cy="179.7" r="7.3"/>
      </g>
      <g>
          <circle class="st0" cx="105.8" cy="243.1" r="7.3"/>
      </g>
      <g>
          <circle class="st0" cx="105.8" cy="306.4" r="7.3"/>
      </g>
      <g>
          <circle class="st0" cx="105.8" cy="369.8" r="7.3"/>
      </g>
      <g>
          <circle class="st0" cx="105.8" cy="433.2" r="7.3"/>
      </g>
      <g>
          <circle class="st0" cx="105.8" cy="496.5" r="7.3"/>
      </g>
      <g>
          <circle class="st0" cx="105.8" cy="559.9" r="7.3"/>
      </g>
      <g>
          <circle class="st0" cx="105.8" cy="623.2" r="7.3"/>
      </g>
      <g>
          <circle class="st0" cx="105.8" cy="686.6" r="7.3"/>
      </g>
      <g>
          <circle class="st0" cx="105.8" cy="750" r="7.3"/>
      </g>
      <g>
          <circle class="st0" cx="105.8" cy="813.3" r="7.3"/>
      </g>
      <g>
          <circle class="st0" cx="105.8" cy="876.7" r="7.3"/>
      </g>
      <g>
          <circle class="st0" cx="105.8" cy="940.1" r="7.3"/>
      </g>
      <g>
          <circle class="st0" cx="105.8" cy="993.4" r="7.3"/>
      </g>
      <g>
          <circle class="st0" cx="105.8" cy="1046.8" r="7.3"/>
      </g>
      <g>
          <circle class="st0" cx="169.1" cy="53" r="7.3"/>
      </g>
      <g>
          <circle class="st0" cx="169.1" cy="116.3" r="7.3"/>
      </g>
      <g>
          <circle class="st0" cx="169.1" cy="179.7" r="7.3"/>
      </g>
      <g>
          <circle class="st0" cx="169.1" cy="243.1" r="7.3"/>
      </g>
      <g>
          <circle class="st0" cx="169.1" cy="306.4" r="7.3"/>
      </g>
      <g>
          <circle class="st0" cx="169.1" cy="369.8" r="7.3"/>
      </g>
      <g>
          <circle class="st0" cx="169.1" cy="433.2" r="7.3"/>
      </g>
      <g>
          <circle class="st0" cx="169.1" cy="496.5" r="7.3"/>
      </g>
      <g>
          <circle class="st0" cx="169.1" cy="559.9" r="7.3"/>
      </g>
      <g>
          <circle class="st0" cx="169.1" cy="623.2" r="7.3"/>
      </g>
      <g>
          <circle class="st0" cx="169.1" cy="686.6" r="7.3"/>
      </g>
      <g>
          <circle class="st0" cx="169.1" cy="750" r="7.3"/>
      </g>
      <g>
          <circle class="st0" cx="169.1" cy="813.3" r="7.3"/>
      </g>
      <g>
          <circle class="st0" cx="169.1" cy="876.7" r="7.3"/>
      </g>
      <g>
          <circle class="st0" cx="169.1" cy="940.1" r="7.3"/>
      </g>
      <g>
          <circle class="st0" cx="169.1" cy="993.4" r="7.3"/>
      </g>
      <g>
          <circle class="st0" cx="169.1" cy="1046.8" r="7.3"/>
      </g>
      <g>
          <circle class="st0" cx="232.5" cy="53" r="7.3"/>
      </g>
      <g>
          <circle class="st0" cx="232.5" cy="116.3" r="7.3"/>
      </g>
      <g>
          <circle class="st0" cx="232.5" cy="179.7" r="7.3"/>
      </g>
      <g>
          <circle class="st0" cx="232.5" cy="243.1" r="7.3"/>
      </g>
      <g>
          <circle class="st0" cx="232.5" cy="306.4" r="7.3"/>
      </g>
      <g>
          <circle class="st0" cx="232.5" cy="369.8" r="7.3"/>
      </g>
      <g>
          <circle class="st0" cx="232.5" cy="433.2" r="7.3"/>
      </g>
      <g>
          <circle class="st0" cx="232.5" cy="496.5" r="7.3"/>
      </g>
      <g>
          <circle class="st0" cx="232.5" cy="559.9" r="7.3"/>
      </g>
      <g>
          <circle class="st0" cx="232.5" cy="623.2" r="7.3"/>
      </g>
      <g>
          <circle class="st0" cx="232.5" cy="686.6" r="7.3"/>
      </g>
      <g>
          <circle class="st0" cx="232.5" cy="750" r="7.3"/>
      </g>
      <g>
          <circle class="st0" cx="232.5" cy="813.3" r="7.3"/>
      </g>
      <g>
          <circle class="st0" cx="232.5" cy="876.7" r="7.3"/>
      </g>
      <g>
          <circle class="st0" cx="232.5" cy="940.1" r="7.3"/>
      </g>
      <g>
          <circle class="st0" cx="232.5" cy="993.4" r="7.3"/>
      </g>
      <g>
          <circle class="st0" cx="232.5" cy="1046.8" r="7.3"/>
      </g>
      <g>
          <circle class="st0" cx="295.8" cy="53" r="7.3"/>
      </g>
      <g>
          <circle class="st0" cx="295.8" cy="116.3" r="7.3"/>
      </g>
      <g>
          <circle class="st0" cx="295.8" cy="179.7" r="7.3"/>
      </g>
      <g>
          <circle class="st0" cx="295.8" cy="243.1" r="7.3"/>
      </g>
      <g>
          <circle class="st0" cx="295.8" cy="306.4" r="7.3"/>
      </g>
      <g>
          <circle class="st0" cx="295.8" cy="369.8" r="7.3"/>
      </g>
      <g>
          <circle class="st0" cx="295.8" cy="433.2" r="7.3"/>
      </g>
      <g>
          <circle class="st0" cx="295.8" cy="496.5" r="7.3"/>
      </g>
      <g>
          <circle class="st0" cx="295.8" cy="559.9" r="7.3"/>
      </g>
      <g>
          <circle class="st0" cx="295.8" cy="623.2" r="7.3"/>
      </g>
      <g>
          <circle class="st0" cx="295.8" cy="686.6" r="7.3"/>
      </g>
      <g>
          <circle class="st0" cx="295.8" cy="750" r="7.3"/>
      </g>
      <g>
          <circle class="st0" cx="295.8" cy="813.3" r="7.3"/>
      </g>
      <g>
          <circle class="st0" cx="295.8" cy="876.7" r="7.3"/>
      </g>
      <g>
          <circle class="st0" cx="295.8" cy="940.1" r="7.3"/>
      </g>
      <g>
          <circle class="st0" cx="295.8" cy="993.4" r="7.3"/>
      </g>
      <g>
          <circle class="st0" cx="295.8" cy="1046.8" r="7.3"/>
      </g>
      <g>
          <circle class="st0" cx="359.2" cy="53" r="7.3"/>
      </g>
      <g>
          <circle class="st0" cx="359.2" cy="116.3" r="7.3"/>
      </g>
      <g>
          <circle class="st0" cx="359.2" cy="179.7" r="7.3"/>
      </g>
      <g>
          <circle class="st0" cx="359.2" cy="243.1" r="7.3"/>
      </g>
      <g>
          <circle class="st0" cx="359.2" cy="306.4" r="7.3"/>
      </g>
      <g>
          <circle class="st0" cx="359.2" cy="369.8" r="7.3"/>
      </g>
      <g>
          <circle class="st0" cx="359.2" cy="433.2" r="7.3"/>
      </g>
      <g>
          <circle class="st0" cx="359.2" cy="496.5" r="7.3"/>
      </g>
      <g>
          <circle class="st0" cx="359.2" cy="559.9" r="7.3"/>
      </g>
      <g>
          <circle class="st0" cx="359.2" cy="623.2" r="7.3"/>
      </g>
      <g>
          <circle class="st0" cx="359.2" cy="686.6" r="7.3"/>
      </g>
      <g>
          <circle class="st0" cx="359.2" cy="750" r="7.3"/>
      </g>
      <g>
          <circle class="st0" cx="359.2" cy="813.3" r="7.3"/>
      </g>
      <g>
          <circle class="st0" cx="359.2" cy="876.7" r="7.3"/>
      </g>
      <g>
          <circle class="st0" cx="359.2" cy="940.1" r="7.3"/>
      </g>
      <g>
          <circle class="st0" cx="359.2" cy="993.4" r="7.3"/>
      </g>
      <g>
          <circle class="st0" cx="359.2" cy="1046.8" r="7.3"/>
      </g>
      <g>
          <circle class="st0" cx="422.6" cy="53" r="7.3"/>
      </g>
      <g>
          <circle class="st0" cx="422.6" cy="116.3" r="7.3"/>
      </g>
      <g>
          <circle class="st0" cx="422.6" cy="179.7" r="7.3"/>
      </g>
      <g>
          <circle class="st0" cx="422.6" cy="243.1" r="7.3"/>
      </g>
      <g>
          <circle class="st0" cx="422.6" cy="306.4" r="7.3"/>
      </g>
      <g>
          <circle class="st0" cx="422.6" cy="369.8" r="7.3"/>
      </g>
      <g>
          <circle class="st0" cx="422.6" cy="433.2" r="7.3"/>
      </g>
      <g>
          <circle class="st0" cx="422.6" cy="496.5" r="7.3"/>
      </g>
      <g>
          <circle class="st0" cx="422.6" cy="559.9" r="7.3"/>
      </g>
      <g>
          <circle class="st0" cx="422.6" cy="623.2" r="7.3"/>
      </g>
      <g>
          <circle class="st0" cx="422.6" cy="686.6" r="7.3"/>
      </g>
      <g>
          <circle class="st0" cx="422.6" cy="750" r="7.3"/>
      </g>
      <g>
          <circle class="st0" cx="422.6" cy="813.3" r="7.3"/>
      </g>
      <g>
          <circle class="st0" cx="422.6" cy="876.7" r="7.3"/>
      </g>
      <g>
          <circle class="st0" cx="422.6" cy="940.1" r="7.3"/>
      </g>
      <g>
          <circle class="st0" cx="422.6" cy="993.4" r="7.3"/>
      </g>
      <g>
          <circle class="st0" cx="422.6" cy="1046.8" r="7.3"/>
      </g>
      <g>
          <circle class="st0" cx="485.9" cy="53" r="7.3"/>
      </g>
      <g>
          <circle class="st0" cx="485.9" cy="116.3" r="7.3"/>
      </g>
      <g>
          <circle class="st0" cx="485.9" cy="179.7" r="7.3"/>
      </g>
      <g>
          <circle class="st0" cx="485.9" cy="243.1" r="7.3"/>
      </g>
      <g>
          <circle class="st0" cx="485.9" cy="306.4" r="7.3"/>
      </g>
      <g>
          <circle class="st0" cx="485.9" cy="369.8" r="7.3"/>
      </g>
      <g>
          <circle class="st0" cx="485.9" cy="433.2" r="7.3"/>
      </g>
      <g>
          <circle class="st0" cx="485.9" cy="496.5" r="7.3"/>
      </g>
      <g>
          <circle class="st0" cx="485.9" cy="559.9" r="7.3"/>
      </g>
      <g>
          <circle class="st0" cx="485.9" cy="623.2" r="7.3"/>
      </g>
      <g>
          <circle class="st0" cx="485.9" cy="686.6" r="7.3"/>
      </g>
      <g>
          <circle class="st0" cx="485.9" cy="750" r="7.3"/>
      </g>
      <g>
          <circle class="st0" cx="485.9" cy="813.3" r="7.3"/>
      </g>
      <g>
          <circle class="st0" cx="485.9" cy="876.7" r="7.3"/>
      </g>
      <g>
          <circle class="st0" cx="485.9" cy="940.1" r="7.3"/>
      </g>
      <g>
          <circle class="st0" cx="485.9" cy="993.4" r="7.3"/>
      </g>
      <g>
          <circle class="st0" cx="485.9" cy="1046.8" r="7.3"/>
      </g>
      <g>
          <circle class="st0" cx="549.3" cy="53" r="7.3"/>
      </g>
      <g>
          <circle class="st0" cx="549.3" cy="116.3" r="7.3"/>
      </g>
      <g>
          <circle class="st0" cx="549.3" cy="179.7" r="7.3"/>
      </g>
      <g>
          <circle class="st0" cx="549.3" cy="243.1" r="7.3"/>
      </g>
      <g>
          <circle class="st0" cx="549.3" cy="306.4" r="7.3"/>
      </g>
      <g>
          <circle class="st0" cx="549.3" cy="369.8" r="7.3"/>
      </g>
      <g>
          <circle class="st0" cx="549.3" cy="433.2" r="7.3"/>
      </g>
      <g>
          <circle class="st0" cx="549.3" cy="496.5" r="7.3"/>
      </g>
      <g>
          <circle class="st0" cx="549.3" cy="559.9" r="7.3"/>
      </g>
      <g>
          <circle class="st0" cx="549.3" cy="623.2" r="7.3"/>
      </g>
      <g>
          <circle class="st0" cx="549.3" cy="686.6" r="7.3"/>
      </g>
      <g>
          <circle class="st0" cx="549.3" cy="750" r="7.3"/>
      </g>
      <g>
          <circle class="st0" cx="549.3" cy="813.3" r="7.3"/>
      </g>
      <g>
          <circle class="st0" cx="549.3" cy="876.7" r="7.3"/>
      </g>
      <g>
          <circle class="st0" cx="549.3" cy="940.1" r="7.3"/>
      </g>
      <g>
          <circle class="st0" cx="549.3" cy="993.4" r="7.3"/>
      </g>
      <g>
          <circle class="st0" cx="549.3" cy="1046.8" r="7.3"/>
      </g>
      <g>
          <circle class="st0" cx="612.7" cy="53" r="7.3"/>
      </g>
      <g>
          <circle class="st0" cx="612.7" cy="116.3" r="7.3"/>
      </g>
      <g>
          <circle class="st0" cx="612.7" cy="179.7" r="7.3"/>
      </g>
      <g>
          <circle class="st0" cx="612.7" cy="243.1" r="7.3"/>
      </g>
      <g>
          <circle class="st0" cx="612.7" cy="306.4" r="7.3"/>
      </g>
      <g>
          <circle class="st0" cx="612.7" cy="369.8" r="7.3"/>
      </g>
      <g>
          <circle class="st0" cx="612.7" cy="433.2" r="7.3"/>
      </g>
      <g>
          <circle class="st0" cx="612.7" cy="496.5" r="7.3"/>
      </g>
      <g>
          <circle class="st0" cx="612.7" cy="559.9" r="7.3"/>
      </g>
      <g>
          <circle class="st0" cx="612.7" cy="623.2" r="7.3"/>
      </g>
      <g>
          <circle class="st0" cx="612.7" cy="686.6" r="7.3"/>
      </g>
      <g>
          <circle class="st0" cx="612.7" cy="750" r="7.3"/>
      </g>
      <g>
          <circle class="st0" cx="612.7" cy="813.3" r="7.3"/>
      </g>
      <g>
          <circle class="st0" cx="612.7" cy="876.7" r="7.3"/>
      </g>
      <g>
          <circle class="st0" cx="612.7" cy="940.1" r="7.3"/>
      </g>
      <g>
          <circle class="st0" cx="612.7" cy="993.4" r="7.3"/>
      </g>
      <g>
          <circle class="st0" cx="612.7" cy="1046.8" r="7.3"/>
      </g>
      <g>
          <circle class="st0" cx="676" cy="53" r="7.3"/>
      </g>
      <g>
          <circle class="st0" cx="676" cy="116.3" r="7.3"/>
      </g>
      <g>
          <circle class="st0" cx="676" cy="179.7" r="7.3"/>
      </g>
      <g>
          <circle class="st0" cx="676" cy="243.1" r="7.3"/>
      </g>
      <g>
          <circle class="st0" cx="676" cy="306.4" r="7.3"/>
      </g>
      <g>
          <circle class="st0" cx="676" cy="369.8" r="7.3"/>
      </g>
      <g>
          <circle class="st0" cx="676" cy="433.2" r="7.3"/>
      </g>
      <g>
          <circle class="st0" cx="676" cy="496.5" r="7.3"/>
      </g>
      <g>
          <circle class="st0" cx="676" cy="559.9" r="7.3"/>
      </g>
      <g>
          <circle class="st0" cx="676" cy="623.2" r="7.3"/>
      </g>
      <g>
          <circle class="st0" cx="676" cy="686.6" r="7.3"/>
      </g>
      <g>
          <circle class="st0" cx="676" cy="750" r="7.3"/>
      </g>
      <g>
          <circle class="st0" cx="676" cy="813.3" r="7.3"/>
      </g>
      <g>
          <circle class="st0" cx="676" cy="876.7" r="7.3"/>
      </g>
      <g>
          <circle class="st0" cx="676" cy="940.1" r="7.3"/>
      </g>
      <g>
          <circle class="st0" cx="676" cy="993.4" r="7.3"/>
      </g>
      <g>
          <circle class="st0" cx="676" cy="1046.8" r="7.3"/>
      </g>
      <g>
          <circle class="st0" cx="739.4" cy="53" r="7.3"/>
      </g>
      <g>
          <circle class="st0" cx="739.4" cy="116.3" r="7.3"/>
      </g>
      <g>
          <circle class="st0" cx="739.4" cy="179.7" r="7.3"/>
      </g>
      <g>
          <circle class="st0" cx="739.4" cy="243.1" r="7.3"/>
      </g>
      <g>
          <circle class="st0" cx="739.4" cy="306.4" r="7.3"/>
      </g>
      <g>
          <circle class="st0" cx="739.4" cy="369.8" r="7.3"/>
      </g>
      <g>
          <circle class="st0" cx="739.4" cy="433.2" r="7.3"/>
      </g>
      <g>
          <circle class="st0" cx="739.4" cy="496.5" r="7.3"/>
      </g>
      <g>
          <circle class="st0" cx="739.4" cy="559.9" r="7.3"/>
      </g>
      <g>
          <circle class="st0" cx="739.4" cy="623.2" r="7.3"/>
      </g>
      <g>
          <circle class="st0" cx="739.4" cy="686.6" r="7.3"/>
      </g>
      <g>
          <circle class="st0" cx="739.4" cy="750" r="7.3"/>
      </g>
      <g>
          <circle class="st0" cx="739.4" cy="813.3" r="7.3"/>
      </g>
      <g>
          <circle class="st0" cx="739.4" cy="876.7" r="7.3"/>
      </g>
      <g>
          <circle class="st0" cx="739.4" cy="940.1" r="7.3"/>
      </g>
      <g>
          <circle class="st0" cx="739.4" cy="993.4" r="7.3"/>
      </g>
      <g>
          <circle class="st0" cx="739.4" cy="1046.8" r="7.3"/>
      </g>
      <g>
          <circle class="st0" cx="802.8" cy="53" r="7.3"/>
      </g>
      <g>
          <circle class="st0" cx="802.8" cy="116.3" r="7.3"/>
      </g>
      <g>
          <circle class="st0" cx="802.8" cy="179.7" r="7.3"/>
      </g>
      <g>
          <circle class="st0" cx="802.8" cy="243.1" r="7.3"/>
      </g>
      <g>
          <circle class="st0" cx="802.8" cy="306.4" r="7.3"/>
      </g>
      <g>
          <circle class="st0" cx="802.8" cy="369.8" r="7.3"/>
      </g>
      <g>
          <circle class="st0" cx="802.8" cy="433.2" r="7.3"/>
      </g>
      <g>
          <circle class="st0" cx="802.8" cy="496.5" r="7.3"/>
      </g>
      <g>
          <circle class="st0" cx="802.8" cy="559.9" r="7.3"/>
      </g>
      <g>
          <circle class="st0" cx="802.8" cy="623.2" r="7.3"/>
      </g>
      <g>
          <circle class="st0" cx="802.8" cy="686.6" r="7.3"/>
      </g>
      <g>
          <circle class="st0" cx="802.8" cy="750" r="7.3"/>
      </g>
      <g>
          <circle class="st0" cx="802.8" cy="813.3" r="7.3"/>
      </g>
      <g>
          <circle class="st0" cx="802.8" cy="876.7" r="7.3"/>
      </g>
      <g>
          <circle class="st0" cx="802.8" cy="940.1" r="7.3"/>
      </g>
      <g>
          <circle class="st0" cx="802.8" cy="993.4" r="7.3"/>
      </g>
      <g>
          <circle class="st0" cx="802.8" cy="1046.8" r="7.3"/>
      </g>
  </g>
  </symbol>
</svg>
